<svg xmlns="http://www.w3.org/2000/svg" xmlns:xlink="http://www.w3.org/1999/xlink" version="1.1" x="0px" y="0px" viewBox="0 0 504 504" enable-background="new 0 0 504 504" xml:space="preserve">
<g id="Guides_For_Artboard">
</g>
<g id="Layer_1">
	<g>
		<g>
			<polygon fill="#FFFFFF" points="247.6,261.3 247.6,283.8 238.7,280.2 238.7,258.4"/>
			<polygon fill="#D71920" points="247.6,283.8 252,285.6 252,262.8 247.6,261.3"/>
			<polygon fill="#D71920" points="229.9,276.7 238.7,280.2 238.7,258.4 229.9,255.5"/>
			<polygon fill="#D71920" points="216.6,271.3 221,273 221,252.7 216.6,251.2"/>
			<polygon fill="#FFFFFF" points="229.9,255.5 229.9,276.7 221,273 221,252.7"/>
			<polygon fill="#0067AC" points="216.6,251.2 252,262.8 252,239.9 216.6,231.2"/>
			<polygon fill="#8B0304" points="256.4,283.8 252,285.6 252,262.8 256.4,261.3"/>
			<polygon fill="#8B0304" points="274.1,276.7 265.3,280.2 265.3,258.4 274.1,255.5"/>
			<polygon fill="#8B0304" points="287.4,271.3 283,273 283,252.7 287.4,251.2"/>
			<polygon fill="#004071" points="287.4,251.2 252,262.8 252,239.9 287.4,231.2"/>
			<polygon fill="#FFFFFF" points="287.4,231.2 252,224.3 216.6,231.2 252,239.9"/>
			<polygon fill="#FFFFFF" points="244.5,247.5 243.2,242.5 241.9,246.7 237.6,245.5 241,249.3 239.8,253.3 243.1,251.6 246.6,255.5 245.3,250.4 248.5,248.6"/>
			<polygon fill="#FFFFFF" points="226.7,242.4 225.5,237.7 224.2,241.7 220.1,240.6 223.4,244.2 222.2,248.1 225.3,246.4 228.8,250.1 227.5,245.2 230.6,243.5"/>
			<polygon fill="#B1B3B6" points="262.1,246.7 260.8,242.5 259.5,247.5 255.5,248.6 258.7,250.4 257.4,255.5 260.9,251.6 264.2,253.3 263,249.3 266.4,245.5"/>
			<polygon fill="#B1B3B6" points="283.9,240.6 279.8,241.7 278.5,237.7 277.3,242.4 273.4,243.5 276.5,245.2 275.2,250.1 278.7,246.4 281.8,248.1 280.6,244.2"/>
			<path fill="#B1B3B6" d="M260.1 223.7V216l-16.1 3.1v4.5l-29.7 5.7v43.4L252 288l37.6-15.2v-43.4L260.1 223.7z M287.4 271.3 L283 273v-20.4l-8.9 2.9v21.2l-8.9 3.5v-21.8l-8.9 2.9v22.5l-4.4 1.8l-35.4-14.3v-40.1l27.5-5.3v8.7l16.1-3.6v-5.1l27.3 5.3 V271.3z"/>
			<polygon fill="#004071" points="260.1,228.6 260.1,231 265.7,229.8"/>
			<polygon fill="#004071" points="238.5,233.3 244,232.1 244,234.6"/>
		</g>
	</g>
</g>
</svg>
