<?xml version="1.0" encoding="utf-8"?>
<!-- Generator: Adobe Illustrator 17.1.0, SVG Export Plug-In . SVG Version: 6.00 Build 0)  -->
<!DOCTYPE svg PUBLIC "-//W3C//DTD SVG 1.1//EN" "http://www.w3.org/Graphics/SVG/1.1/DTD/svg11.dtd">
<svg version="1.1" id="Layer_1" xmlns="http://www.w3.org/2000/svg" xmlns:xlink="http://www.w3.org/1999/xlink" x="0px" y="0px"
	 width="75.3px" height="72px" viewBox="0 0 75.3 72" enable-background="new 0 0 75.3 72" xml:space="preserve">
<g>
	<g>
		<polygon fill="#FFFFFF" points="33.2,45.3 33.2,67.8 24.4,64.2 24.4,42.4 		"/>
		<polygon fill="#D71920" points="33.2,67.8 37.7,69.6 37.7,46.8 33.2,45.3 		"/>
		<polygon fill="#D71920" points="15.5,60.7 24.4,64.2 24.4,42.4 15.5,39.5 		"/>
		<polygon fill="#D71920" points="2.2,55.3 6.6,57 6.6,36.7 2.2,35.2 		"/>
		<polygon fill="#FFFFFF" points="15.5,39.5 15.5,60.7 6.6,57 6.6,36.7 		"/>
		<polygon fill="#0067AC" points="2.2,35.2 37.7,46.8 37.7,23.9 2.2,15.2 		"/>
		<polygon fill="#8B0304" points="42.1,67.8 37.7,69.6 37.7,46.8 42.1,45.3 		"/>
		<polygon fill="#8B0304" points="59.8,60.7 50.9,64.2 50.9,42.4 59.8,39.5 		"/>
		<polygon fill="#8B0304" points="73.1,55.3 68.7,57 68.7,36.7 73.1,35.2 		"/>
		<polygon fill="#004071" points="73.1,35.2 37.7,46.8 37.7,23.9 73.1,15.2 		"/>
		<polygon fill="#FFFFFF" points="73.1,15.2 37.7,8.3 2.2,15.2 37.7,23.9 		"/>
		<polygon fill="#FFFFFF" points="30.1,31.5 28.8,26.5 27.5,30.7 23.2,29.5 26.7,33.3 25.4,37.3 28.7,35.6 32.3,39.5 30.9,34.4 
			34.2,32.6 		"/>
		<polygon fill="#FFFFFF" points="12.4,26.4 11.1,21.7 9.8,25.7 5.7,24.6 9.1,28.2 7.9,32.1 11,30.4 14.4,34.1 13.1,29.2 16.2,27.5 
					"/>
		<polygon fill="#B1B3B6" points="47.8,30.7 46.5,26.5 45.2,31.5 41.1,32.6 44.4,34.4 43,39.5 46.6,35.6 49.9,37.3 48.6,33.3 
			52.1,29.5 		"/>
		<polygon fill="#B1B3B6" points="69.6,24.6 65.5,25.7 64.2,21.7 62.9,26.4 59.1,27.5 62.2,29.2 60.9,34.1 64.3,30.4 67.4,32.1 
			66.2,28.2 		"/>
		<path fill="#B1B3B6" d="M45.8,7.7V0L29.7,3.1v4.5L0,13.3v43.4L37.7,72l37.6-15.2V13.3L45.8,7.7z M73.1,55.3L68.7,57V36.7l-8.9,2.9
			v21.2l-8.9,3.5V42.4l-8.9,2.9v22.5l-4.4,1.8L2.2,55.3V15.2l27.5-5.3v8.7L45.8,15V9.9l27.3,5.3V55.3z"/>
		<polygon fill="#004071" points="45.8,12.6 45.8,15 51.3,13.8 		"/>
		<polygon fill="#004071" points="24.1,17.3 29.7,16.1 29.7,18.6 		"/>
	</g>
</g>
</svg>
